<?xml version="1.0" encoding="utf-8"?>
<!-- Generator: Adobe Illustrator 23.0.1, SVG Export Plug-In . SVG Version: 6.00 Build 0)  -->
<svg version="1.1" id="Calque_1" xmlns="http://www.w3.org/2000/svg" xmlns:xlink="http://www.w3.org/1999/xlink" x="0px" y="0px"
	 viewBox="0 0 257.8 64.7" style="enable-background:new 0 0 257.8 64.7;" xml:space="preserve">
<style type="text/css">
	.st0{fill:#0175A0;}
	.st1{fill:#003E5A;}
</style>
<path class="st0" d="M0,16.8V0h3.3v16.8H0z M31.2,16.8L24.6,6.5v10.3h-3.3V0h2.9l6.6,10.3V0h3.3v16.8C34.1,16.8,31.2,16.8,31.2,16.8
	z M55.4,2.9V7H62v3h-6.6v6.8h-3.3V0h11v2.9H55.4z M80.2,16.8V0h3.3v16.8H80.2z M111.4,16.8l-6.6-10.3v10.3h-3.3V0h2.9l6.6,10.3V0
	h3.3v16.8H111.4z M132.4,16.8V0h3.3v16.8H132.4z M165.6,16.8V7l-3.2,6.4h-2.2L156.9,7v9.8h-3.3V0h3.2l4.4,9.1l4.4-9.1h3.2v16.8
	H165.6L165.6,16.8z M186.9,16.8V0h11v2.9h-7.8v3.9h6.6v2.9h-6.6v4.1h7.8v2.9L186.9,16.8L186.9,16.8z M225.2,16.8l-6.6-10.3v10.3
	h-3.3V0h2.9l6.6,10.3V0h3.3v16.8H225.2z M252.5,2.9v13.8h-3.3V2.9h-4.4V0h12v2.9L252.5,2.9L252.5,2.9z"/>
<path class="st1" d="M54.9,33.9v5.9c-1.6-1.4-4.4-2.9-8.3-2.3c-1.9,0.3-3.6,0.9-5.1,1.7v-5.3c0-2.3-5.7,0.1-5.7,2.4v7.3
	c-1.2,1.2-2.5,2.5-3.9,4.1l-0.2,0.2c-3.7,4-9.9,10.7-16.4,10.6c-3.1,0-6.1-1.7-8.9-4.8C3.3,49.9,4,42.4,7.8,38.9
	C9.6,37.2,13,35.6,17,36s7.6,2.9,10.6,7.2l0.7,1l2.6-2.5L30.6,41c-0.2-0.4-5.5-8.9-14.9-8.5c-5.1,0.3-9.8,2.8-12.6,6.8
	c-2,2.9-3.9,8-1.5,15.5c1.6,4.3,5.9,7.8,10.9,9c1.3,0.3,2.6,0.5,3.8,0.5c4.1,0,8-1.6,11.3-4.6c3.1-2.8,5.6-5.7,7.8-8.2
	c0.1-0.2,0.3-0.3,0.4-0.4v12.2c0,1.9,5.7,1.9,5.7,0v-18c2.3-1.9,4.6-3.2,7.6-3.6h0.1c2.4-0.5,4.9,0.9,5.7,1.4v20.3
	c0,1.9,5.7,1.9,5.7,0V36.3C60.6,34.1,54.9,31.6,54.9,33.9z M80.1,35c-0.3-0.3-0.9-0.3-1.2,0c-2.9,3.1-9.3,17.6-12.8,28
	c-0.6,1.9,5.5,1.9,6.1,0c0.7-2.3,1.4-4.4,2.1-6.6h10.5c0.7,2.2,1.4,4.3,2.1,6.6c0.5,1.8,6.8,1.9,6.1,0C89.5,52.6,83,38.1,80.1,35z
	 M75.8,51.8c1.1-2.9,2.2-5.9,3.7-8.9c1.4,3.1,2.6,6,3.7,8.9C83.2,51.8,75.8,51.8,75.8,51.8z M144.5,59.3h-13v-7.5h9.8
	c1.8,0,1.8-4.7,0-4.7h-9.7v-7.2h11c2.2,0,4.5-4.7,2.3-4.7h-17.7c-0.6,0-1,0.9-1,1.9V62c0,1,0.3,2,1,2h17.3
	C146.3,64,146.3,59.3,144.5,59.3L144.5,59.3z M171.4,37.7V53c-3.8-6.3-8.2-11.9-14.3-17.7c-0.8-0.8-5.1-1-5.1,0.9V63
	c0,1.8,5.4,1.8,5.4,0V42.9c5.6,6,9.3,11,14.1,20.6c0.5,1.1,5.4,1.3,5.4-0.6V35.4C176.8,33.3,171.4,35.6,171.4,37.7L171.4,37.7z
	 M205.9,35.2H183c-2.2,0,0.1,4.7,2.3,4.7h6.5V63c0,1.8,5.8,1.8,5.8,0V39.9h8.3C207.7,39.9,207.7,35.2,205.9,35.2L205.9,35.2z
	 M230.5,59.3h-13v-7.5h9.8c1.8,0,1.8-4.7,0-4.7h-9.7v-7.2h11c2.2,0,4.5-4.7,2.3-4.7h-17.7c-0.6,0-1,0.9-1,1.9V62c0,1,0.3,2,1,2h17.3
	C232.3,64,232.3,59.3,230.5,59.3L230.5,59.3z M248.4,47.3c-3.4-0.6-6.4-1.2-6.4-4.2c0-2.5,1.8-3.9,4.8-3.9c2.3,0,5.4,0.8,8.9,2.6
	c1.8,0.9,1.5-4-0.1-4.8c-2.8-1.5-5.9-2.2-8.8-2.2c-5.5,0-10.2,2.8-10.2,8.7c0,6,4.9,7,9.1,7.9c3.4,0.7,6.5,1.3,6.5,4.4
	c0,2.5-2.1,3.9-5.3,3.9c-2.4,0-5.5-0.8-8.8-2.5c-1.9-1-1.6,4.1,0.1,4.9c2.8,1.4,6,2.2,8.9,2.2c5.7,0,10.5-2.8,10.5-8.7
	C257.8,49.1,252.8,48.1,248.4,47.3L248.4,47.3z M119.5,42.9c0-6.2-4.7-9.7-12.9-9.7c-6.4,0-9.6,1.3-9.6,2.5v26.9
	c0,1.9,5.6,1.9,5.6,0v-9.8c2.3,1.2,3.7,3.7,5.1,5.9c1.6,2.7,4.1,5.1,6.8,5.5c2.1,0.7,4-3.8,3.1-4.5l-1.3-0.5c-1.6-0.8-4-2.4-4.8-3.7
	c-0.6-0.9-1.1-1.8-1.8-2.7C116.2,52.5,119.5,49.4,119.5,42.9z M107.5,48.8c-1.3,0-3-0.2-4.9-0.6v-9.5c1.4-0.4,3-0.7,4.5-0.7
	c4.4,0,6.6,1.8,6.6,5.3C113.7,46.6,112.2,48.8,107.5,48.8z"/>
</svg>
