<svg xmlns="http://www.w3.org/2000/svg" viewBox="0 0 636.3 166.1" width="636" height="166"><path d="M20.7 12.4c-.7-5.6-3.3-8.7-7.5-8.7-5.6 0-9 5.8-9 15.2 0 9.2 3.2 14.4 8.9 14.4 4.2 0 6.9-3 7.9-8.8l3.7.7c-1.4 7.3-5.4 11.1-11.7 11.1-8.2-.1-13-6.5-13-17.2C0 8 5.1.7 13 .7c3.7 0 7 1.8 9 4.6 1.3 1.8 1.9 3.8 2.3 6.8l-3.6.3zM32.1 22.4c0 7 2.5 11 6.8 11 4.4 0 6.8-4 6.8-11s-2.5-10.9-6.8-10.9c-4.4 0-6.8 3.9-6.8 10.9m6.7-13.8c6.4 0 10.5 5.4 10.5 13.8 0 8.5-4 13.9-10.4 13.9S28.4 31 28.4 22.4c0-8.5 4.1-13.8 10.4-13.8M55 9.3h3.5v3.6c2.3-3 4.8-4.4 7.7-4.4 3.4 0 5.8 1.8 6.6 4.8 2-3.2 4.7-4.8 7.8-4.8 2.4 0 4.6 1 5.8 2.6 1 1.4 1.5 3.2 1.5 6.3v18.1h-3.6V17.8c0-1.2 0-2-.1-2.6-.3-2.3-2.2-3.7-4.5-3.7-2.7 0-4.9 1.8-6.3 5v19.1h-3.6V18c0-1.2 0-2.1-.1-2.7-.3-2.3-2.1-3.8-4.4-3.8-2.6 0-4.9 1.8-6.7 4.9v19.2H55V9.3zM94.9 9.3h3.5v3.6c2.3-3 4.8-4.4 7.7-4.4 3.4 0 5.8 1.8 6.6 4.8 2-3.2 4.7-4.8 7.8-4.8 2.4 0 4.6 1 5.8 2.6 1 1.4 1.5 3.2 1.5 6.3v18.1h-3.6V17.8c0-1.2 0-2-.1-2.6-.3-2.3-2.2-3.7-4.5-3.7-2.7 0-4.9 1.8-6.3 5v19.1h-3.6V18c0-1.2 0-2.1-.1-2.7-.3-2.3-2.1-3.8-4.4-3.8-2.6 0-4.9 1.8-6.7 4.9v19.2h-3.6V9.3zM148.9 32.7c-2 2.4-4.2 3.5-6.9 3.5-2.2 0-4.3-.9-5.5-2.3-1.3-1.5-1.7-3.2-1.7-6.7V9.3h3.5v17.6c0 1.1.1 2.1.2 2.8.3 2.1 2 3.5 4.3 3.5 2.5 0 4.7-1.6 6.9-4.9v-19h3.6v26.3h-3.6v-3.9c-.3.5-.5.7-.8 1M160.4 9.3h3.5V13c2.3-3 4.8-4.5 7.7-4.5 2.3 0 4.4 1 5.6 2.6 1.1 1.5 1.6 3.1 1.6 6.4v18h-3.6V18c0-1.2-.1-2-.1-2.7-.3-2.4-2-3.8-4.5-3.8s-4.8 1.6-6.7 4.9v19.1h-3.6V9.3zM199.1 21.5c-1.2.6-1.7.7-3.3 1.2-1 .3-1.8.5-2.3.7-.9.3-1.8.6-2.6.9-.8.3-1.5.8-2 1.3-.8.9-1.3 2.1-1.3 3.4 0 2.6 1.7 4.4 4.3 4.4 1.6 0 3.1-.7 4.6-1.9 1.4-1.2 2.5-2.7 2.5-3.5v-6.5zm0-5.3c0-3-1.7-4.5-4.7-4.5-2.7 0-4.7 1.5-6.1 4.6l-3-1.6c2-3.9 5.1-6 9.2-6 2.4 0 4.5.7 6 2s2.1 2.9 2.1 5.8v13.3c0 1.8 0 2.8.1 3.6 0 .7.1 1.1.3 2.2h-3.4l-.4-3.8c-2.4 3.1-4.8 4.5-7.9 4.5-4.3 0-7.2-2.8-7.2-7.1 0-4.2 2.6-6.7 8.2-8.2l2.9-.8c1.4-.4 2.3-.8 3.9-1.5v-2.5zM223.7 32.7c-2 2.4-4.2 3.5-6.9 3.5-2.2 0-4.3-.9-5.5-2.3-1.3-1.5-1.7-3.2-1.7-6.7V9.3h3.5v17.6c0 1.1.1 2.1.2 2.8.3 2.1 2 3.5 4.3 3.5 2.5 0 4.7-1.6 6.9-4.9v-19h3.6v26.3h-3.6v-3.9c-.3.5-.5.7-.8 1M231.1 9.3h4.4V2.7h3.5v6.5h6.7V12H239v18.4c.1 1.7 1.2 2.6 3 2.6 1 0 2.2-.2 3.6-.9v3c-2 .7-3.2.9-4.5.9-2 0-3.6-.6-4.6-1.7-1-1.2-1.2-2.2-1.2-5.9V12.1H231V9.3zM258.8 0h3.5l-3.7 7.1h-3.5l3.7-7.1zm-7.4 20.2h12.5v-.5c0-5-2.3-8.2-5.9-8.2-3.8-.1-6.2 3.2-6.6 8.7m-.1 2.6v.6c0 6.3 2.6 9.9 6.9 9.9 2.9 0 4.9-1.5 6.5-5.1l3 1.5c-1.9 4.4-5.1 6.6-9.5 6.6-6.6 0-10.5-5-10.5-13.4 0-8.8 4-14.3 10.4-14.3 6 0 9.6 5 9.6 13.4v.9h-16.4zM16.9 66.6c-1.5-2.4-3.9-3.9-6.3-3.9-4.3 0-6.8 4-6.8 11.1 0 7.2 2.5 11.1 7 11.1 2.4 0 4.8-1.5 6-3.7V66.6zm0-16.1h3.6v33.4c0 .1 0 .2.1.4 0 .8.1 1.5.4 3h-3.5l-.4-3c-1.8 2.5-4 3.6-6.9 3.6C3.8 88 0 82.7 0 74c0-8.6 4-14.3 10-14.3 2.6 0 4.6 1 6.9 3.4V50.5zM27.4 57.9h-1.2v-5.6h4.2v5.5l-3.2 7.6h-1.3" fill="#335c9e"/><g fill="#335c9e"><path d="M45.6 73.3h5.8l-1.8-7.1c-.9-3.7-1-4.4-1.1-7.3-.1 2.9-.2 3.4-1.1 7.3l-1.8 7.1zm-2.3-21H54l11.9 35H55.7l-2.1-6.4h-10l-2 6.4H31.3l12-35z"/><path d="M74.7 69.8c.1 1.9 1.4 3.2 3.2 3.2 1.9 0 3.2-1.4 3.2-3.6 0-2.1-1.3-3.5-3.1-3.5-1.9 0-3.2 1.4-3.2 3.7v.2zM72 87.5c-.5.6-.7 1.1-.7 1.6 0 1 .6 1.4 2.4 1.7 1.7.3 3.4.4 4.8.4.6 0 1.2 0 1.7-.1l1.8-.2c1.1-.1 1.7-.4 1.7-1 0-.9-.8-1.3-3-1.4-3.5 0-5.4-.2-6.9-.5-.6-.1-1-.2-1.8-.5m-5.5-5.3c0-2.1 1.6-3.6 4.8-4.5-3.2-1.6-5-4.5-5-8 0-5.8 4.9-10 11.7-10 2.6 0 4.7.5 6.6 1.6 1.4-1.9 3.1-2.7 5.9-2.7h.7V64c-.5-.1-.9-.2-1.4-.2-.9 0-1.4.1-2 .4 1.3 1.7 1.7 3.3 1.7 5.2 0 5.7-4.8 9.7-11.6 9.7-1.1 0-1.7-.1-3.2-.3-.5.4-.7.6-.7.9 0 1 1.4 1.4 4.8 1.5l2.6.1c1.1 0 2.2.1 3.1.2 4.4.5 7.1 3.2 7.1 6.8 0 4.9-5.5 8.3-13.6 8.3-7.9 0-13.1-2.5-13.1-6.1 0-2.2 1.6-3.9 4.3-4.6-1.8-.7-2.7-2-2.7-3.7"/><path d="M100.9 69.8c.1 1.9 1.4 3.2 3.2 3.2 1.9 0 3.2-1.4 3.2-3.6 0-2.1-1.3-3.5-3.1-3.5-1.9 0-3.2 1.4-3.2 3.7v.2zm-2.7 17.7c-.5.6-.7 1.1-.7 1.6 0 1 .6 1.4 2.4 1.7 1.7.3 3.4.4 4.8.4.6 0 1.2 0 1.6-.1l1.8-.2c1.1-.1 1.7-.4 1.7-1 0-.9-.8-1.3-3-1.4-3.5 0-5.4-.2-6.9-.5-.5-.1-.9-.2-1.7-.5m-5.6-5.3c0-2.1 1.6-3.6 4.8-4.5-3.2-1.6-5-4.5-5-8 0-5.8 4.9-10 11.7-10 2.6 0 4.7.5 6.6 1.6 1.4-1.9 3.1-2.7 5.9-2.7h.7V64c-.5-.1-.9-.2-1.4-.2-.9 0-1.4.1-2 .4 1.3 1.7 1.7 3.3 1.7 5.2 0 5.7-4.8 9.7-11.6 9.7-1.1 0-1.7-.1-3.2-.3-.5.4-.7.6-.7.9 0 1 1.4 1.4 4.8 1.5l2.6.1c1.1 0 2.2.1 3.1.2 4.4.5 7.1 3.2 7.1 6.8 0 4.9-5.5 8.3-13.6 8.3-7.9 0-13.1-2.5-13.1-6.1 0-2.2 1.6-3.9 4.3-4.6-1.7-.7-2.7-2-2.7-3.7"/></g><path fill="#335c9e" d="M119.1 49.6h9.1v37.7h-9.1zM140.2 73.8c0 5.2 1.1 7.4 3.4 7.4 2.4 0 3.5-2.2 3.5-7.4s-1.1-7.3-3.5-7.3c-2.3 0-3.4 2.1-3.4 7.3m3.5-14.2c8 0 13.2 5.6 13.2 14.2 0 8.7-5.2 14.2-13.2 14.2-7.8 0-12.7-5.5-12.7-14.2s4.9-14.2 12.7-14.2M159.7 60.4h9.1v2.5c2.9-2.3 5.2-3.3 8-3.3 3.1 0 5.1 1.2 6.2 3.6 3.2-2.5 5.6-3.6 8.3-3.6 2.5 0 4.7 1.1 5.9 2.9 1.1 1.5 1.2 2.2 1.2 6v18.9h-9.1V68.8c-.1-1.3-1.2-2.2-2.5-2.2-1.5 0-2.7 1-3.2 2.6v18.2h-9.1V69.6c0-2.1-.7-3.1-2.3-3.1-1.4 0-2.7.9-3.3 2.6v18.2h-9.2V60.4zM210.2 70.9h7.5c-.1-3.1-1.4-4.9-3.6-4.9-2.3.1-3.7 1.9-3.9 4.9m1.1-21.1h8.6l-2.2 8.5h-8.5l2.1-8.5zm-1.2 25.6c0 3.6 1.5 5.7 3.8 5.7 1.1 0 2.1-.4 2.7-1.3.5-.6 1-1.4 1.6-2.6l7.9 2.6c-1.9 5.4-6.2 8.2-12.3 8.2-7.8 0-12.5-5.3-12.5-14.1 0-8.6 5-14.3 12.8-14.3 8 0 12.1 5.3 12.3 15.7h-16.3zM228.9 60.4h9.1v3.7c2.1-3 4.8-4.4 8.1-4.4h1.3v8.4c-.7-.1-1-.1-1.5-.1-4.4 0-8 2.3-8 5.1v14.2h-9.1V60.4zM263.1 75.2c-1.2.7-1.6.9-3.6 1.6-2.8 1-3.6 1.7-3.6 3.2 0 1.3.9 2.1 2.4 2.1 1.2 0 2.5-.5 3.4-1.4s1.4-2 1.4-3v-2.5zm0-6.5c0-1.5-1.1-2.5-2.8-2.5-1.8 0-3.1.9-3.9 3l-7.9-2.4c2.4-4.9 6.2-7.2 12.2-7.2 7.4 0 11.3 3.2 11.3 9.5v14.3c0 2.2 0 2.6.2 3.9H264l-.4-2.8c-.7.7-1.1 1-1.6 1.5-1.9 1.3-4.2 2-6.5 2-4.9 0-8.3-3.2-8.3-7.8 0-4.3 2.8-6.9 8.9-8.5l2.7-.7c1.7-.4 2.8-.7 4.5-1.4l-.2-.9zM273.3 60.4h3.2v-7h9.1v7h6v6h-6v10.4c0 .8 0 1.3.1 1.6.2 1.6 1.4 2.4 3.3 2.4.9 0 1.6-.1 2.6-.3v6.8l-.2.1-.6.1c-1.7.3-2.8.4-4.1.4-3.4 0-6-.9-7.8-2.7-1.7-1.7-2.2-3.6-2.2-7.6V66.4h-3.2v-6zM293.5 49.6h9.1v8.2h-9.1v-8.2zm-.1 10.8h9.2v26.9h-9.2V60.4zM314.6 73.8c0 5.2 1.1 7.4 3.4 7.4 2.4 0 3.5-2.2 3.5-7.4s-1.1-7.3-3.5-7.3c-2.3 0-3.4 2.1-3.4 7.3m3.5-14.2c8 0 13.2 5.6 13.2 14.2 0 8.7-5.2 14.2-13.2 14.2-7.8 0-12.7-5.5-12.7-14.2s5-14.2 12.7-14.2M334.1 60.4h9.1v2.5l1-.7c.9-.6 1.3-.9 1.7-1.2 1.4-.8 3.3-1.3 5-1.3 2.3 0 4.2.8 5.6 2.4 1.2 1.5 1.5 2.6 1.5 6v19.3h-9.1v-17-1.6c-.1-1.4-1.1-2.2-2.4-2.2-1.4 0-2.7.9-3.4 2.4v18.4H334v-27zM393 66.6c-1.5-2.4-3.9-3.9-6.3-3.9-4.3 0-6.8 4-6.8 11.1 0 7.2 2.5 11.1 7 11.1 2.4 0 4.8-1.5 6-3.7V66.6zm0-16.1h3.6v33.4c0 .1 0 .2.1.4 0 .8.1 1.5.4 3h-3.5l-.4-3c-1.8 2.5-4 3.6-6.9 3.6-6.3 0-10.1-5.2-10.1-14 0-8.6 3.9-14.3 10-14.3 2.6 0 4.6 1 6.9 3.4V50.5zM406.2 71.5H419V71c0-5.1-2.4-8.4-6-8.4-3.9 0-6.4 3.3-6.8 8.9m-.1 2.7l-.1.6c0 6.4 2.6 10.2 7.1 10.2 3 0 5-1.6 6.6-5.2l3.1 1.5c-2 4.5-5.2 6.7-9.7 6.7-6.8 0-10.7-5.1-10.7-13.7 0-9 4.1-14.6 10.6-14.6 6.2 0 9.8 5.1 9.8 13.7v.9h-16.7zM.8 107.6v57.3h39.9v-12.6h-24v-44.7M67.5 145c-2 1.1-2.7 1.5-5.9 2.6-4.5 1.6-5.9 2.9-5.9 5.3 0 2.1 1.4 3.4 3.9 3.4 2 0 4.1-.9 5.6-2.3 1.4-1.4 2.3-3.3 2.3-4.9V145zm-.1-10.5c0-2.5-1.7-4.1-4.5-4.1-3 0-5 1.5-6.4 4.9l-12.9-4c3.9-8.1 10.1-11.8 19.9-11.8 12.2 0 18.6 5.3 18.6 15.5v23.4c0 3.7 0 4.2.3 6.4H68.9l-.7-4.5c-1.2 1.2-1.7 1.7-2.7 2.4-3.1 2.1-6.8 3.3-10.6 3.3-8 0-13.7-5.2-13.7-12.7 0-7.1 4.6-11.4 14.5-13.9l4.4-1.1c2.8-.7 4.6-1.2 7.3-2.2v-1.6zM127.8 130.7h5.6c5.1 0 7.2-1.6 7.2-5.3 0-2.8-1.6-4.8-4-5.2-.6-.1-1.6-.2-2.9-.2h-5.9v10.7zm-16-23.1h23.6c7.8 0 11.3.8 14.8 3.3 4.3 3 6.6 7.8 6.6 13.7 0 7.1-3.1 12.2-9.1 15.2l12.9 25.2H143l-9.5-21.5h-5.7V165h-16.1v-57.4zM176.3 142.8c0 8.5 1.7 12.1 5.6 12.1 4 0 5.7-3.6 5.7-12.1s-1.7-12-5.7-12c-3.9 0-5.6 3.5-5.6 12m5.7-23.3c13.1 0 21.6 9.1 21.6 23.3 0 14.2-8.5 23.3-21.6 23.3-12.7 0-20.8-9-20.8-23.3 0-14.2 8.1-23.3 20.8-23.3M234.2 138.3c-.2-5.1-2.2-8-5.5-8-4.1 0-6 4.3-6 12.7 0 8.1 1.8 11.9 5.9 11.9.8 0 1.7-.3 2.5-.7.8-.5 1.4-1 1.8-1.8.2-.3.5-1.2 1-2.5.2-.5.4-1.1.9-2.2l12.9 4.3c-2.9 9.3-9.7 14.1-19.4 14.1-12.9 0-20.8-8.7-20.8-22.6 0-14.5 8.5-23.8 21.5-23.8 10.1 0 16.8 5.7 18.6 16.2l-13.4 2.4zM251.7 103.1h15v22c4.4-3.8 8.2-5.5 12.8-5.5 4.4 0 7.9 1.7 9.9 4.7 1.4 2.1 1.8 4.2 1.8 9.6v31h-14.9v-30.4c0-2.1-1.9-3.8-4.1-3.8-2.2 0-4.4 1.5-5.6 4.1v30.1h-14.9v-61.8zM311 138h12.3c-.1-5.1-2.2-7.9-6-7.9-3.7 0-6.1 2.9-6.3 7.9m-.2 7.4c0 5.9 2.4 9.4 6.2 9.4 1.7 0 3.4-.7 4.4-2.1.8-1 1.6-2.3 2.5-4.3l12.9 4.2c-3.2 8.8-10.2 13.5-20.1 13.5-12.7 0-20.4-8.7-20.4-23.1 0-14.1 8.2-23.4 20.9-23.4 13 0 19.8 8.7 20.1 25.7h-26.5zM341.9 103.1h14.9v61.8h-14.9zM362.9 103.1h14.9v61.8h-14.9zM397.5 138h12.3c-.1-5.1-2.2-7.9-6-7.9s-6 2.9-6.3 7.9m-.2 7.4c0 5.9 2.4 9.4 6.2 9.4 1.7 0 3.4-.7 4.4-2.1.8-1 1.6-2.3 2.5-4.3l12.9 4.2c-3.2 8.8-10.2 13.5-20.1 13.5-12.7 0-20.4-8.7-20.4-23.1 0-14.1 8.2-23.4 20.9-23.4 13 0 19.8 8.7 20.1 25.7h-26.5zM458.2.4v9.2h157.5l9.1-9.2M606.8 18.4H458.2v9.2H598M588.8 36.5H458.2v9.2h121.3M570.7 54.5H458.2v9.2h103.3M552.8 72.6h-94.6v9.2h85.2M534.7 90.6h-76.5v9.2h67.3M516.7 108.7h-58.5v9.2h49.1M498.5 126.7h-40.3v9.2h31.1M480.6 144.8h-22.4v9.2h13M471.2 165.1h165.1V.1"/></svg>